<?xml version="1.0" encoding="UTF-8" standalone="no"?><!DOCTYPE svg PUBLIC "-//W3C//DTD SVG 1.1//EN" "http://www.w3.org/Graphics/SVG/1.1/DTD/svg11.dtd"><svg width="100%" height="100%" viewBox="0 350 1366 580" version="1.1" xmlns="http://www.w3.org/2000/svg" xmlns:xlink="http://www.w3.org/1999/xlink" xml:space="preserve" xmlns:serif="http://www.serif.com/" style="fill-rule:evenodd;clip-rule:evenodd;stroke-linejoin:round;stroke-miterlimit:2;"><rect id="Artboard1" x="0" y="0" width="1366" height="1475.47" style="fill:none;"/><clipPath id="_clip1"><rect x="0" y="0" width="1366" height="1475.47"/></clipPath><g clip-path="url(#_clip1)"><path d="M400.276,765.159c1.052,24.588 -18.19,56.633 -46.174,52.578c-32.382,-4.694 -41.143,-49.691 -29.513,-74.821c11.308,-24.433 41.732,-32.098 61.259,-12.4c8.997,9.076 13.88,21.832 14.428,34.643m-4.981,-68.649c-6.777,-22.517 19.708,-55.684 37.861,-67.468c14.843,-9.635 32.707,-7.395 49.151,-1.826c-4.358,6.288 -5.586,12.147 -3.415,19.835c3.902,13.832 25.667,22.578 37.473,14.055c8.144,-5.88 13.074,-13.93 12.781,-23.126c-0.284,-8.874 -4.095,-18.266 -12.718,-22.936c-5.807,-3.144 -12.677,-2.518 -19.036,-0.337c-10.195,-33.375 -38.592,-53.915 -73.186,-56.414c-34.166,-2.469 -66.079,13.333 -87.426,40.251c-2.8,-4.901 -5.416,-27.173 -3.443,-41.312c2.648,-18.973 18.291,-51.829 43.916,-66.266c8.05,14.061 25.27,18.672 39.153,10.523c8.527,-5.005 13.503,-16.217 13.392,-26.114c-0.156,-13.918 -10.845,-25.217 -23.434,-28.791c-13.33,-3.782 -27.322,1.474 -31.625,15.243c-43.072,-8.612 -96.585,8.85 -126.043,42.807c-17.772,20.487 -30.318,44.943 -36.248,70.709c25.808,20.113 47.83,63.842 49.867,98.084c1.915,32.211 -20.557,50.735 -39.683,69.981c-10.661,10.729 -19.495,21.862 -27.738,33.756c-2.813,4.058 -2.777,8.381 -0.099,12.913c7.293,12.343 23.902,9.346 31.707,5.158l55.242,-29.638c1.19,15.063 3.574,29.835 11.081,42.965c7.735,13.528 19.774,26.94 34.195,33.408c54.296,24.355 109.702,-22.377 107.265,-78.464c-1.115,-25.653 -16.036,-54.239 -38.988,-66.997" style="fill:#1173c2;fill-rule:nonzero;"/><path d="M262.314,673.428c-2.037,-34.242 -24.059,-77.971 -49.867,-98.084c-30.102,-23.46 -68.785,-32.503 -106.145,-23.698c-32.123,7.57 -56.653,29.459 -67.847,60.454c-12.339,-4.683 -28.958,1.005 -35.1,11.789c-6.988,12.269 -2.67,28.182 9.351,37.404c7.958,6.103 21.911,5.874 30.962,2.291c14.144,-5.598 19.681,-20.281 12.809,-34.428c29.043,-7.723 51.787,-1.712 73.67,18.712c35.508,33.14 54.348,83.647 64.746,129.296c8.244,-11.893 17.079,-23.027 27.738,-33.756c19.126,-19.246 41.599,-37.771 39.683,-69.981" style="fill:#19c4f8;fill-rule:nonzero;"/><path d="M984.711,736.773l-14.144,66.147l-18.736,-66.147l-27.433,0l-15.37,68.054l-17.155,-68.054l-32.337,0l27.477,109.411l35.964,0.039l14.511,-63.304l17.766,63.248l34.738,-0.044l26.836,-109.351l-32.116,0Z" style="fill:#19c4f8;fill-rule:nonzero;"/><path d="M1061.668,824.375c-6.46,1.37 -12.542,-3.613 -13.557,-7.624c-1.662,-6.565 1.176,-12.669 7.705,-14.965l22.762,-8.005c3.282,12.612 -3.022,27.645 -16.91,30.594m48.988,-62.204c0,-8.743 -12.373,-21.184 -24.588,-24.871c-17.106,-5.164 -34.845,-3.69 -50.83,3.681c-5.146,2.374 -8.42,7.553 -8.442,13.22l-0.054,13.989l0.009,0.054c0.37,2.205 2.733,3.46 4.76,2.514c13.372,-6.234 50.13,-18.478 50.371,2.888c-16.116,2.685 -35.794,5.152 -49.614,13.405c-16.727,9.99 -22.789,32.241 -10.592,48.033c14.824,19.192 42.952,18.389 59.353,0.293c2.551,3.413 0.684,7 1.561,10.983l29.757,-0.182c0,0 -1.691,-63.278 -1.691,-84.008" style="fill:#19c4f8;fill-rule:nonzero;"/><path d="M1361.289,796.096c-12.251,-20.083 -55.577,-19.606 -51.248,-30.568c5.083,-12.874 29.575,-3.344 38.715,2.404c5.184,-6.247 8.769,-12.573 13.659,-20.203c0.931,-1.453 -19.684,-10.094 -21.775,-10.717c-8.74,-2.602 -18.023,-3.603 -27.099,-2.548c-19.513,2.27 -35.4,12.691 -35.965,33.634c-0.49,18.365 13.683,27.628 29.279,33.056c6.95,2.417 14.246,4.381 20.636,8.141c9.196,5.411 6.962,12.536 -4.366,13.297c-13.712,0.919 -25.995,-4.624 -38.154,-12.351c-3.252,7.78 -4.545,15.531 -6.866,24.099c21.712,18.458 69.45,20.399 83.735,-4.63c5.762,-10.094 5.5,-23.695 -0.552,-33.614" style="fill:#19c4f8;fill-rule:nonzero;"/><path d="M813.278,798.413c-5.094,7.783 -13.563,14.578 -22.408,16.829c-2.226,0.566 -27.219,1.938 -27.204,1c0.343,-20.202 -0.069,-40.492 -0.111,-60.712c-0.02,-9.298 -0.041,-18.597 -0.06,-27.893c-0.002,-1.298 1.065,-2.103 1.82,-1.34c19.619,-0.454 39.641,2.618 51.06,20.636c9.75,15.382 6.484,36.843 -3.096,51.48m-11.782,-101.061c-4.468,-0.9 -13.948,-2.324 -23.246,-2.324c-13.161,0 -30.276,1.058 -41.035,1.402c-3.783,0.12 -6.779,3.218 -6.779,7.001l-0.005,141.211c0,1.234 0.954,1.895 1.506,1.721c18.779,-0.65 37.632,1.107 57.046,-0.545c28.33,-2.41 51.573,-20.525 61.074,-46.569c15.935,-42.756 -3.642,-92.855 -48.561,-101.897" style="fill:#19c4f8;fill-rule:nonzero;"/><path d="M549.364,846.088l-0.447,-71.292c-0.084,-13.661 -4.943,-27.768 -17.035,-35.028c-16.411,-9.853 -38.189,-6.24 -51.83,6.243c-1.313,1.202 -2.903,2.404 -2.903,2.404l0.12,4.65c0,0 0.266,-12.647 -0.059,-16.468l-30.93,-0.247l-0.167,109.95l34.709,-0.226c0,-19.251 0.063,-38.451 -0.263,-58.348c-0.101,-6.169 0.946,-12.985 4.326,-18.269c3.698,-5.778 11.128,-7.394 17.41,-5.414c12.734,4.011 13.083,20.221 13.068,31.176l-0.069,51.146l34.07,-0.277Z" style="fill:#1173c2;fill-rule:nonzero;"/><path d="M1159.029,750.095l0.023,-13.568l-29.984,0.075l0.003,109.723l31.66,0.078c2.275,0.006 2.8,-1.601 2.804,-2.941l0.146,-49.75c0.003,-1.088 -0.152,-2.202 -0.063,-3.285c0.66,-8.018 2.947,-16.248 8.448,-21.088c6.893,-6.064 15.314,-6.596 24.493,-5.798l0.02,-29.369c-15.359,-0.755 -27.174,6.368 -37.55,15.922" style="fill:#19c4f8;fill-rule:nonzero;"/><path d="M1272.026,735.012c0.002,-1.337 -1.035,-1.47 -1.539,-1.473l-19.164,-0.143c-1.173,-2.95 -0.976,-5.331 -0.561,-9.482c0.65,-6.482 11.528,-7.594 19.114,-6.479c1.349,-6.472 0.344,-12.91 0.591,-20.024c-0.6,0.829 -7.965,-0.098 -9,-0.116c-3.737,-0.066 -7.501,-0.272 -11.237,-0.184c-6.915,0.162 -14.096,0.937 -20.399,3.988c-11.356,5.497 -12.979,18.601 -13.653,29.868c-0.045,0.742 -0.084,1.483 -0.122,2.225l-11.788,0.597l0.274,30.813l11.789,0.829l0.34,78.02c-0.017,0.686 0.214,2.299 0.271,2.78c0.063,0.539 1.28,0.074 2.425,0.066l31.338,-0.19l0.385,-79.409c0.002,-0.414 0.227,-0.97 0.066,-1.346l20.832,-0.248l0.038,-30.094Z" style="fill:#19c4f8;fill-rule:nonzero;"/><path d="M717.546,738.498c0.335,-0.331 0.517,-0.508 0.517,-0.508l-26.591,-0.229l-6.017,0l-21.289,68.518l-21.164,-68.178l-2.866,-0.15l-29.71,-0.003c0,0 -2.798,-0.766 -3.207,0.614c-0.334,1.121 0.178,2.056 0.584,3.224l13.291,38.097l17.729,49.643c1.942,5.437 6.178,11.752 6.311,17.71c0.25,11.23 -34.39,13.753 -44.308,12.501l0.366,25.707c6.615,2.375 15.583,2.429 18.673,2.565c10.496,0.46 21.214,-1.109 30.792,-5.555c10.135,-4.707 17.103,-12.438 23.72,-21.16c14.536,-19.161 43.883,-122.849 43.883,-122.849l-0.712,0.054Z" style="fill:#1173c2;fill-rule:nonzero;"/><path d="M600.824,695.601l-34.126,-0.229l0.069,150.815l33.93,0.02l0.126,-150.606Z" style="fill:#1173c2;fill-rule:nonzero;"/></g></svg>