<?xml version="1.0" encoding="UTF-8" standalone="no"?><!DOCTYPE svg PUBLIC "-//W3C//DTD SVG 1.1//EN" "http://www.w3.org/Graphics/SVG/1.1/DTD/svg11.dtd"><svg width="100%" height="100%" viewBox="0 0 1366 1476" version="1.1" xmlns="http://www.w3.org/2000/svg" xmlns:xlink="http://www.w3.org/1999/xlink" xml:space="preserve" xmlns:serif="http://www.serif.com/" style="fill-rule:evenodd;clip-rule:evenodd;stroke-linejoin:round;stroke-miterlimit:2;"><rect id="Artboard2" x="0" y="0" width="1366" height="1475.47" style="fill:none;"/><clipPath id="_clip1"><rect x="0" y="0" width="1366" height="1475.47"/></clipPath><g clip-path="url(#_clip1)"><path d="M1020.438,870.946c-17.495,-58.126 50.876,-143.746 97.736,-174.165c38.317,-24.873 84.432,-19.091 126.881,-4.714c-11.25,16.232 -14.419,31.358 -8.815,51.202c10.073,35.707 66.258,58.285 96.735,36.282c21.025,-15.18 33.75,-35.96 32.993,-59.699c-0.734,-22.908 -10.571,-47.152 -32.83,-59.21c-14.99,-8.116 -32.725,-6.501 -49.14,-0.87c-26.318,-86.156 -99.624,-139.18 -188.925,-145.63c-88.199,-6.373 -170.58,34.418 -225.685,103.907c-7.227,-12.652 -13.982,-70.146 -8.889,-106.645c6.834,-48.977 47.218,-133.793 113.367,-171.062c20.78,36.298 65.233,48.2 101.072,27.164c22.011,-12.92 34.857,-41.863 34.57,-67.411c-0.404,-35.929 -27.995,-65.097 -60.495,-74.324c-34.41,-9.763 -70.53,3.806 -81.64,39.35c-111.188,-22.232 -249.331,22.846 -325.375,110.505c-45.878,52.887 -78.265,116.019 -93.573,182.533c66.623,51.921 123.471,164.806 128.73,253.199c4.944,83.151 -53.066,130.97 -102.439,180.654c-27.521,27.696 -50.324,56.437 -71.605,87.139c-7.261,10.475 -7.169,21.634 -0.256,33.335c18.827,31.863 56.551,33.256 83.019,22.282c92.44,-38.327 588.959,-164.427 434.567,-263.824Z" style="fill:#1173c2;fill-rule:nonzero;"/><path d="M677.152,811.36c-5.258,-88.393 -62.107,-201.278 -128.73,-253.199c-77.706,-60.561 -177.567,-83.904 -274.01,-61.175c-82.925,19.541 -146.247,76.048 -175.143,156.061c-31.851,-12.089 -74.755,2.594 -90.61,30.434c-18.038,31.673 -6.893,72.751 24.139,96.556c20.543,15.755 56.561,15.165 79.927,5.914c36.511,-14.45 50.806,-52.355 33.067,-88.875c74.972,-19.937 133.685,-4.419 190.176,48.305c91.663,85.55 140.298,215.93 167.14,333.771c21.281,-30.702 44.088,-59.443 71.605,-87.139c49.373,-49.684 107.387,-97.503 102.439,-180.654" style="fill:#19c4f8;fill-rule:nonzero;"/></g></svg>